<svg width="34" height="34" viewBox="0 0 34 34" fill="none" xmlns="http://www.w3.org/2000/svg">
<path d="M32.0021 26.0749C30.7805 24.8442 27.822 23.0482 26.3866 22.3243C24.5173 21.3828 24.3634 21.3059 22.8942 22.3974C21.9141 23.1258 21.2626 23.7766 20.1156 23.532C18.9687 23.2874 16.4763 21.9082 14.294 19.7329C12.1116 17.5576 10.6523 14.9931 10.4069 13.8501C10.1615 12.7071 10.8231 12.0632 11.5447 11.081C12.5616 9.69642 12.4847 9.46566 11.6154 7.59651C10.9377 6.14273 9.08921 3.21208 7.8538 1.99675C6.53223 0.691421 6.53223 0.92218 5.68067 1.27601C4.9874 1.56768 4.3223 1.92222 3.6937 2.3352C2.4629 3.15285 1.77981 3.83206 1.3021 4.85278C0.824398 5.87351 0.609778 8.26648 3.07676 12.7478C5.54374 17.2292 7.27455 19.5206 10.8569 23.0928C14.4393 26.6649 17.194 28.5856 21.221 30.844C26.2027 33.6339 28.1135 33.09 29.1374 32.6131C30.1613 32.1362 30.8436 31.4593 31.6628 30.2286C32.0769 29.6011 32.4323 28.9368 32.7244 28.2441C33.079 27.3957 33.3098 27.3957 32.0021 26.0749Z" fill="white" fill-opacity="0.92" stroke="#CDA274" stroke-width="2" stroke-miterlimit="10"/>
</svg>
